# xmcd
#
# Track frame offsets: 
#        150
#        17849
#        31016
#        53015
#        68840
#        84352
#        106935
#        125426
#        152268
#        174190
#
# Disc length: 2606 seconds
#
# Revision: 1
# Processed by: cddbd v1.5.2PL0 Copyright (c) Steve Scherf et al.
# Submitted via: ExactAudioCopy v0.90b4
#
DISCID=660a2c0a
DTITLE=Kristofer Åström - RainawayTown
DYEAR=2007
DGENRE=Indie Pop
TTITLE0=Conjure Me
TTITLE1=The Dark
TTITLE2=All In
TTITLE3=Just A Little Insane
TTITLE4=A Little Out Of Tune
TTITLE5=Fallen
TTITLE6=It's The Way
TTITLE7=Heavy On The Drinks
TTITLE8=Blacked Out
TTITLE9=Not Cool Again
EXTD=Added by JCash
EXTT0=
EXTT1=
EXTT2=
EXTT3=
EXTT4=
EXTT5=
EXTT6=
EXTT7=
EXTT8=
EXTT9=
PLAYORDER=
